<?xml version="1.0" encoding="UTF-8"?>
<svg version="1.1" xmlns="http://www.w3.org/2000/svg" width="32" height="32">
<path d="M0 0 C3.42527887 1.47348708 5.64955058 3.40907846 8.25 6.0625 C8.95640625 6.77535156 9.6628125 7.48820312 10.390625 8.22265625 C12 10 12 10 12 11 C3.42857143 11.28571429 3.42857143 11.28571429 0 9 C-0.845625 9.99 -1.69125 10.98 -2.5625 12 C-5.26449693 14.74713769 -5.78228878 14.97893117 -9.875 15.375 C-10.90625 15.25125 -11.9375 15.1275 -13 15 C-11.38989473 10.92623969 -8.46177729 8.23492931 -5.375 5.25 C-4.859375 4.74339844 -4.34375 4.23679687 -3.8125 3.71484375 C-2.54616661 2.47196098 -1.2736856 1.23534724 0 0 Z " fill="#FFC604" transform="translate(15,17)"/>
<path d="M0 0 C0.28571429 8.57142857 0.28571429 8.57142857 -2 12 C-1.01 12.845625 -0.02 13.69125 1 14.5625 C3.74713769 17.26449693 3.97893117 17.78228878 4.375 21.875 C4.25125 22.90625 4.1275 23.9375 4 25 C-0.07376031 23.38989473 -2.76507069 20.46177729 -5.75 17.375 C-6.25660156 16.859375 -6.76320313 16.34375 -7.28515625 15.8125 C-8.52803902 14.54616661 -9.76465276 13.2736856 -11 12 C-9.52651292 8.57472113 -7.59092154 6.35044942 -4.9375 3.75 C-4.22464844 3.04359375 -3.51179688 2.3371875 -2.77734375 1.609375 C-1 0 -1 0 0 0 Z " fill="#000000" transform="translate(28,5)"/>
<path d="M0 0 C-1.58876339 3.78995513 -3.97389547 6.37175677 -6.8125 9.3125 C-8.09060547 10.66794922 -8.09060547 10.66794922 -9.39453125 12.05078125 C-12 14 -12 14 -14.5546875 14.04296875 C-17.48099664 12.79484648 -19.12757326 11.30425419 -21.3125 9 C-22.35857422 7.9171875 -22.35857422 7.9171875 -23.42578125 6.8125 C-25 5 -25 5 -25 4 C-16.42857143 3.71428571 -16.42857143 3.71428571 -13 6 C-12.154375 5.01 -11.30875 4.02 -10.4375 3 C-7.12053831 -0.37237632 -4.7286376 -0.56743651 0 0 Z " fill="#FF0C60" transform="translate(30,0)"/>
<path d="M0 0 C3.78995513 1.58876339 6.37175677 3.97389547 9.3125 6.8125 C10.66794922 8.09060547 10.66794922 8.09060547 12.05078125 9.39453125 C14 12 14 12 14.0078125 14.5859375 C12.87998414 17.28747985 11.67455174 18.79704938 9.5625 20.8125 C8.94503906 21.41707031 8.32757813 22.02164062 7.69140625 22.64453125 C6 24 6 24 4 24 C3.71428571 16.57142857 3.71428571 16.57142857 6 13 C5.01 12.154375 4.02 11.30875 3 10.4375 C0.25286231 7.73550307 0.02106883 7.21771122 -0.375 3.125 C-0.25125 2.09375 -0.1275 1.0625 0 0 Z " fill="#000000" transform="translate(0,2)"/>
</svg>
